<svg xmlns="http://www.w3.org/2000/svg" width="62" height="62" viewBox="0 0 62 62">
  <g id="cityscape" transform="translate(-1 -1)">
    <path id="Path_11595" data-name="Path 11595" d="M42,31H58V28H56V22H55V17H53v5H52v6H42Z" fill="#fff"/>
    <path id="Path_11596" data-name="Path 11596" d="M35,3H33V7.98l2-.4Z" fill="#fff"/>
    <path id="Path_11597" data-name="Path 11597" d="M39,1H37V7.18l2-.4Z" fill="#fff"/>
    <path id="Path_11598" data-name="Path 11598" d="M43,3H41V6.38l2-.4Z" fill="#fff"/>
    <path id="Path_11599" data-name="Path 11599" d="M36.75,54.44A5.946,5.946,0,0,1,39,54V31h1V26h7V7.22l-18,3.6V52.253a8,8,0,0,1,7.75,2.187ZM40,14h4v6H40Zm-8,0h4v6H32Zm0,10h4v6H32Zm0,10h4v6H32Zm0,10h4v6H32Z" fill="#fff"/>
    <path id="Path_11600" data-name="Path 11600" d="M47,52a7.987,7.987,0,0,1,2,.259V37H45V52.265A7.935,7.935,0,0,1,47,52Z" fill="#fff"/>
    <path id="Path_11601" data-name="Path 11601" d="M53.929,56H54a7.885,7.885,0,0,1,1,.079V37H51V53.069A7.98,7.98,0,0,1,53.929,56Z" fill="#fff"/>
    <path id="Path_11602" data-name="Path 11602" d="M59,57.786V33H41V54.366c.082.029.169.042.25.075A7.985,7.985,0,0,1,43,53.082V35H57V56.61a8.024,8.024,0,0,1,2,1.176Z" fill="#fff"/>
    <path id="Path_11603" data-name="Path 11603" d="M59.184,61a5.967,5.967,0,0,0-6.48-2.856A6,6,0,0,0,41.746,57.1a3.967,3.967,0,0,0-5.492,0,6,6,0,0,0-10.986,1.12A3.979,3.979,0,0,0,24,58l-.515.036A4,4,0,0,0,16.129,61H14.094a5.994,5.994,0,0,1,10.129-5.262A7.932,7.932,0,0,1,27,53.067V17H13V27.58a8.588,8.588,0,0,1,2,1.108V27h2v2H15.382a9.263,9.263,0,0,1,1.05,1.012A8.218,8.218,0,0,1,19.908,31H21v.7A10.321,10.321,0,0,1,25,40a10,10,0,0,1-6,9.417v1.694l-6,7V61H11V57.369l6-7V47.909c3.386-.558,6-3.887,6-7.909,0-4.411-3.141-8-7-8-.172,0-.348.011-.526.028A6.711,6.711,0,0,0,10,29c-3.859,0-7,3.589-7,8,0,4.022,2.614,7.351,6,7.909V36h2v9.578a6.71,6.71,0,0,0,4,2.33V49.63L11,54.3V45.578c-.165-.194-.325-.4-.474-.609-.174.015-.348.031-.526.031a6.136,6.136,0,0,1-1-.091v1.3A4.459,4.459,0,0,0,6,45c-2.757,0-5,2.691-5,6,0,2.9,1.721,5.321,4,5.879V61H1v2H63V61ZM17,25H15V23h2Zm0-4H15V19h2Zm4,8H19V27h2Zm0-4H19V23h2Zm0-4H19V19h2Zm2-2h2v2H23Zm0,4h2v2H23Zm0,4h2v2H23Zm0,6V31h2v2ZM7,56.879a4.639,4.639,0,0,0,2-1.09V61H7Z" fill="#fff"/>
  </g>
</svg>
