<svg id="google" xmlns="http://www.w3.org/2000/svg" width="20" height="20" viewBox="0 0 20 20">
  <g id="post-gplus">
    <path id="Path_11523" data-name="Path 11523" d="M9.2,6.9c0-1-.6-3-2.1-3-.6,0-1.3.4-1.3,1.7,0,1.2.6,2.9,2,2.9A1.528,1.528,0,0,0,9.2,6.9Zm-.6,4.9H8.3a7.4,7.4,0,0,0-1.8.3A1.82,1.82,0,0,0,5,13.8C5,14.9,6,16,8,16a2.186,2.186,0,0,0,2.4-2C10.4,13.3,9.9,12.8,8.6,11.8ZM18,0H2A2.006,2.006,0,0,0,0,2V18a2.006,2.006,0,0,0,2,2H18a2.006,2.006,0,0,0,2-2V2A2.006,2.006,0,0,0,18,0ZM7.1,17.2c-2.8,0-4.1-1.6-4.1-3a2.635,2.635,0,0,1,1.5-2.4,6.685,6.685,0,0,1,3.1-.9,1.327,1.327,0,0,1-.3-1,.9.9,0,0,1,.1-.5H7a3.056,3.056,0,0,1-3.2-3c0-1.7,1.3-3.6,4.1-3.6h4.2l-.3.3-.7.7-.1.1h-.7a3.017,3.017,0,0,1,.9,2.2A2.992,2.992,0,0,1,9.6,8.8a.842.842,0,0,0-.4.7.675.675,0,0,0,.4.6,2.185,2.185,0,0,0,.5.3c.8.6,1.9,1.3,1.9,2.9C12,15.1,10.7,17.2,7.1,17.2ZM17,10H15v2H14V10H12V9h2V7h1V9h2Z" fill="#fff"/>
  </g>
</svg>
