<svg id="ig" xmlns="http://www.w3.org/2000/svg" width="20" height="20" viewBox="0 0 20 20">
  <g id="post-instagram">
    <path id="Path_11524" data-name="Path 11524" d="M18,0H2A2.006,2.006,0,0,0,0,2V18a2.006,2.006,0,0,0,2,2H18a2.006,2.006,0,0,0,2-2V2A2.006,2.006,0,0,0,18,0ZM10,6a4,4,0,1,1-4,4A4.012,4.012,0,0,1,10,6ZM2.5,18a.472.472,0,0,1-.5-.5V9H4.1A3.4,3.4,0,0,0,4,10a6,6,0,1,0,12,0,3.4,3.4,0,0,0-.1-1H18v8.5a.472.472,0,0,1-.5.5ZM18,4.5a.472.472,0,0,1-.5.5h-2a.472.472,0,0,1-.5-.5v-2a.472.472,0,0,1,.5-.5h2a.472.472,0,0,1,.5.5Z" fill="#fff"/>
  </g>
</svg>
