<svg xmlns="http://www.w3.org/2000/svg" width="203.542" height="112.664" viewBox="0 0 203.542 112.664">
  <g id="logo-blue" transform="translate(-371.197 -685.301)">
    <g id="Слой_4" data-name="Слой 4" transform="translate(444.448 685.301)">
      <path id="Path_11540" data-name="Path 11540" d="M331.672,90.008h-5.188a23.693,23.693,0,0,0-45.828,11.345c5.606-2.807,14.037-6.148,23.279-6.729a63.49,63.49,0,0,0-20.928,13.653q-1.779,1.707-3.537,3.691a20.906,20.906,0,0,1-2.249-4.352,27.482,27.482,0,0,1-1.122-3.776,28.643,28.643,0,0,1,55.573-13.832Z" transform="translate(-275.421 -68.938)" fill="#829cff"/>
      <path id="Path_11541" data-name="Path 11541" d="M346.716,140.826a22.57,22.57,0,0,1-4.151,6.827l-20.791,24.465a2.475,2.475,0,0,1-3.772,0l-7.522-8.836L303,154.5h0a45.746,45.746,0,0,1,2.854-4.267,60.571,60.571,0,0,1,30.033-21.111c-.657.38-18.7,10.9-24.115,28.057l8.107,9.515L338.8,144.478a17.66,17.66,0,0,0,3.264-5.355,23.39,23.39,0,0,0,1.148-12.314h5.018A28.16,28.16,0,0,1,346.716,140.826Z" transform="translate(-291.233 -102.118)" fill="#fff"/>
      <path id="Path_11542" data-name="Path 11542" d="M338.779,121.8a46.261,46.261,0,0,0-4.932.649c-.815.149-1.707.329-2.654.55a60.894,60.894,0,0,0-35.332,23.181q-1.485,2.01-2.889,4.245l-4.872-5.717c-.333-.388-.657-.785-.96-1.182.764-.879,1.928-2.133,3.486-3.622A65.158,65.158,0,0,1,331.193,121.8c.811-.055,1.626-.1,2.458-.119,1.664-.047,3.366-.03,5.12.06a.257.257,0,0,1,.008.064Z" transform="translate(-282.14 -99.16)" fill="#fff"/>
      <path id="Path_11543" data-name="Path 11543" d="M408.8,121.89s-.218,0-.627.03a.257.257,0,0,0,0-.06C408.371,121.864,408.58,121.873,408.8,121.89Z" transform="translate(-351.53 -99.28)"/>
      <path id="Path_11544" data-name="Path 11544" d="M408.8,121.89s-.218,0-.627.03a.257.257,0,0,0,0-.06C408.371,121.864,408.58,121.873,408.8,121.89Z" transform="translate(-351.53 -99.28)"/>
    </g>
    <path id="Path_11574" data-name="Path 11574" d="M20.7-31.781v11.474a11.159,11.159,0,0,1-.6,3.683,8.127,8.127,0,0,1-1.847,3.017,8.865,8.865,0,0,1-3.16,2.054,12.156,12.156,0,0,1-4.5.759A10.58,10.58,0,0,1,4.88-12.306,9.559,9.559,0,0,1,1.2-16.6L5.158-18.53a5.539,5.539,0,0,0,2.2,2.647,5.967,5.967,0,0,0,3.239.944,7.132,7.132,0,0,0,2.647-.425,4.31,4.31,0,0,0,1.7-1.182,4.506,4.506,0,0,0,.925-1.81,9.2,9.2,0,0,0,.278-2.345v-11.08Zm9.513,10.253a7.2,7.2,0,0,0,.537,2.85A6.367,6.367,0,0,0,32.2-16.549a6.151,6.151,0,0,0,2.165,1.333,7.77,7.77,0,0,0,2.7.463,7.77,7.77,0,0,0,2.7-.463,6.151,6.151,0,0,0,2.165-1.333,6.367,6.367,0,0,0,1.444-2.128,7.2,7.2,0,0,0,.537-2.85,7.2,7.2,0,0,0-.537-2.85,6.367,6.367,0,0,0-1.444-2.128,6.151,6.151,0,0,0-2.165-1.333,7.77,7.77,0,0,0-2.7-.463,7.77,7.77,0,0,0-2.7.463A6.151,6.151,0,0,0,32.2-26.506a6.367,6.367,0,0,0-1.444,2.128A7.2,7.2,0,0,0,30.216-21.528Zm18.322,0a10.233,10.233,0,0,1-.925,4.386,10.511,10.511,0,0,1-2.48,3.387,11.172,11.172,0,0,1-3.646,2.184,12.592,12.592,0,0,1-4.423.777,12.592,12.592,0,0,1-4.423-.777,11.172,11.172,0,0,1-3.646-2.184,10.511,10.511,0,0,1-2.48-3.387,10.233,10.233,0,0,1-.925-4.386,10.233,10.233,0,0,1,.925-4.386,10.511,10.511,0,0,1,2.48-3.387,11.172,11.172,0,0,1,3.646-2.184,12.592,12.592,0,0,1,4.423-.777,12.592,12.592,0,0,1,4.423.777A11.172,11.172,0,0,1,45.133-29.3a10.511,10.511,0,0,1,2.48,3.387A10.233,10.233,0,0,1,48.538-21.528Zm9.55-10.253v16.323h14.1v4.146H53.461V-31.781ZM83.813-18.456h9.106l-3.7-9.217H87.626Zm8.439-13.325,8.7,20.469H96.065l-1.333-3.109H82.11l-1.333,3.109h-4.96l8.92-20.469Zm16.508,0v10.475a7.247,7.247,0,0,0,1.407,4.719,5.406,5.406,0,0,0,4.442,1.721,5.406,5.406,0,0,0,4.442-1.721,7.247,7.247,0,0,0,1.407-4.719V-31.781h4.627v10.438a12.742,12.742,0,0,1-.74,4.516,9.027,9.027,0,0,1-2.091,3.294,8.958,8.958,0,0,1-3.294,2.036,12.712,12.712,0,0,1-4.349.7,12.712,12.712,0,0,1-4.349-.7,8.958,8.958,0,0,1-3.294-2.036,9.027,9.027,0,0,1-2.091-3.294,12.741,12.741,0,0,1-.74-4.516V-31.781Zm39.309,6a12.386,12.386,0,0,0-3.738-1.8,16.281,16.281,0,0,0-4.368-.537,13.578,13.578,0,0,0-2.48.185,5.513,5.513,0,0,0-1.518.48,1.736,1.736,0,0,0-.759.683,1.763,1.763,0,0,0-.2.831,1.184,1.184,0,0,0,.74,1.2,7.36,7.36,0,0,0,1.925.462l6.144.7A10.566,10.566,0,0,1,149-21.726a5.053,5.053,0,0,1,1.888,4.285,5.378,5.378,0,0,1-.8,2.973,6.427,6.427,0,0,1-2.221,2.068,10.866,10.866,0,0,1-3.368,1.219,21.677,21.677,0,0,1-4.238.388,19.862,19.862,0,0,1-5.645-.74,15.9,15.9,0,0,1-4.941-2.554l2.184-3.59a15.862,15.862,0,0,0,4.238,2.165,15.223,15.223,0,0,0,4.682.685,11.076,11.076,0,0,0,4.035-.629q1.592-.629,1.592-1.925a1.556,1.556,0,0,0-.518-1.277,3.583,3.583,0,0,0-1.814-.574l-6.885-.777a10.079,10.079,0,0,1-4.941-1.721,4.917,4.917,0,0,1-1.8-4.2,5.1,5.1,0,0,1,.759-2.813,6.147,6.147,0,0,1,2.054-1.962,10.185,10.185,0,0,1,3.017-1.166,16.694,16.694,0,0,1,3.683-.389,22.036,22.036,0,0,1,5.4.635,13.974,13.974,0,0,1,4.923,2.427Zm12.252-6v7.81H171.87v-7.81H176.5v20.469H171.87v-8.513H160.322v8.513h-4.627V-31.781Zm25.947,0,6.552,10.919h.3l6.329-10.919h5.293L195.115-16.42v5.108h-4.553V-16.42l-9.587-15.361Z" transform="translate(370 808.759)" fill="#fff"/>
  </g>
</svg>
