<svg xmlns="http://www.w3.org/2000/svg" width="270.699" height="40" viewBox="0 0 270.699 40">
  <g id="logo" transform="translate(-334 -549)">
    <g id="Group_16134" data-name="Group 16134" transform="translate(334 549)">
      <path id="Path_11563" data-name="Path 11563" d="M472.993,169.721H462V168.28h5.594A19.371,19.371,0,0,1,472.993,169.721Z" transform="translate(-462 -141.069)" fill="#de0404"/>
      <path id="Path_11564" data-name="Path 11564" d="M467.594,114.291H462V112.85h10.993A19.053,19.053,0,0,1,467.594,114.291Z" transform="translate(-462 -101.144)" fill="#de0404"/>
      <path id="Path_11565" data-name="Path 11565" d="M488.41,128.577c2.884-7.569,0-12.615,0-12.615l5.759-1.8a9.648,9.648,0,0,1,3.964,7.93c-.711,6.85-3.964,7.93-3.964,7.93Z" transform="translate(-481.023 -102.087)" fill="#de0404"/>
      <path id="Path_11566" data-name="Path 11566" d="M499.483,72.8V92.259A18.8,18.8,0,0,1,480.741,111H462v-9.9h8.831v2.162a2.118,2.118,0,0,0,2.162-2.162h7.9c.5,0,.2.179,1.413-.448,4.864-2.517,5.821-6.4,5.821-6.4V87.4c-2.182-5.3-6.243-6.283-7.306-6.456a3.077,3.077,0,0,0-.448-.034h-7.385c0-2.162-2.341-1.983-2.341-1.983V81.09L462,80.955V71h35.681A1.8,1.8,0,0,1,499.483,72.8Z" transform="translate(-462 -71)" fill="#de0404"/>
      <path id="Path_11567" data-name="Path 11567" d="M467.594,168.28A19.4,19.4,0,0,1,473,169.721H462V168.28Z" transform="translate(-462 -141.069)" fill="#de0404"/>
      <path id="Path_11568" data-name="Path 11568" d="M467.594,114.291H462V112.85h10.993A19.053,19.053,0,0,1,467.594,114.291Z" transform="translate(-462 -101.144)" fill="#de0404"/>
      <path id="Path_11569" data-name="Path 11569" d="M498.12,122.09c-.719,6.85-3.972,7.93-3.972,7.93l-5.768-1.441c2.884-7.569,0-12.615,0-12.615l5.768-1.8A9.648,9.648,0,0,1,498.12,122.09Z" transform="translate(-481.001 -102.087)" fill="#de0404"/>
    </g>
    <path id="Path_11570" data-name="Path 11570" d="M5.787-76.175a11.231,11.231,0,0,1-4.622-.939,8.835,8.835,0,0,1-3.453-2.674L.9-83.612q2.019,2.727,4.6,2.727,3.506,0,3.506-4.108V-96.787H.3v-4.6H14.712v16.079q0,4.569-2.267,6.853T5.787-76.175Zm28.722,0a14.47,14.47,0,0,1-6.959-1.665A12.354,12.354,0,0,1,22.7-82.426,12.521,12.521,0,0,1,20.945-89a12.521,12.521,0,0,1,1.753-6.57,12.354,12.354,0,0,1,4.852-4.586,14.47,14.47,0,0,1,6.959-1.665,14.367,14.367,0,0,1,6.942,1.665A12.514,12.514,0,0,1,46.3-95.565,12.425,12.425,0,0,1,48.073-89a12.425,12.425,0,0,1-1.771,6.57,12.514,12.514,0,0,1-4.852,4.586A14.367,14.367,0,0,1,34.509-76.175Zm0-4.887a7.867,7.867,0,0,0,3.967-1.009,7.243,7.243,0,0,0,2.78-2.816A8.277,8.277,0,0,0,42.265-89,8.277,8.277,0,0,0,41.256-93.1a7.243,7.243,0,0,0-2.78-2.816,7.867,7.867,0,0,0-3.967-1.009,7.867,7.867,0,0,0-3.967,1.009,7.243,7.243,0,0,0-2.78,2.816A8.277,8.277,0,0,0,26.753-89a8.277,8.277,0,0,0,1.009,4.108,7.243,7.243,0,0,0,2.78,2.816A7.867,7.867,0,0,0,34.509-81.062Zm20.01-20.329h5.737v20.116H72.687V-76.6H54.519ZM94.574-81.912H83.064l-2.2,5.312H74.989l11.05-24.791h5.667L102.791-76.6H96.77Zm-1.806-4.356L88.837-95.76l-3.931,9.491Zm25.216,10.094q-5.312,0-8.27-2.94t-2.957-8.394v-13.883h5.737v13.671q0,6.658,5.525,6.658a5.179,5.179,0,0,0,4.108-1.611q1.417-1.611,1.417-5.047v-13.671h5.667v13.883q0,5.454-2.957,8.394T117.984-76.175Zm27.164,0a20.284,20.284,0,0,1-5.684-.8,13.331,13.331,0,0,1-4.409-2.072L137-83.364a13.217,13.217,0,0,0,3.789,1.877,14.234,14.234,0,0,0,4.392.708,7.016,7.016,0,0,0,3.612-.726,2.193,2.193,0,0,0,1.169-1.93,1.845,1.845,0,0,0-.691-1.47,5.235,5.235,0,0,0-1.771-.939q-1.08-.354-2.922-.779a40.39,40.39,0,0,1-4.639-1.346,7.538,7.538,0,0,1-3.1-2.16A5.834,5.834,0,0,1,135.55-94.1a6.9,6.9,0,0,1,1.169-3.913,7.862,7.862,0,0,1,3.524-2.78A14.38,14.38,0,0,1,146-101.816a19.056,19.056,0,0,1,4.639.567A13.705,13.705,0,0,1,154.6-99.62l-1.771,4.356a13.823,13.823,0,0,0-6.871-1.948,6.442,6.442,0,0,0-3.559.779,2.378,2.378,0,0,0-1.151,2.054,2.008,2.008,0,0,0,1.328,1.895,20.852,20.852,0,0,0,4.055,1.222,40.391,40.391,0,0,1,4.639,1.346,7.683,7.683,0,0,1,3.1,2.125,5.7,5.7,0,0,1,1.293,3.931,6.769,6.769,0,0,1-1.186,3.878,7.971,7.971,0,0,1-3.559,2.78A14.51,14.51,0,0,1,145.148-76.175Zm39.312-25.216V-76.6h-5.737V-86.764H167.46V-76.6h-5.737v-24.791h5.737v9.775h11.262v-9.775Zm19.9,16.008V-76.6h-5.737v-8.854l-9.6-15.937h6.092l6.623,11.014,6.623-11.014H214Z" transform="translate(390.703 658.291)" fill="#fff"/>
  </g>
</svg>
